<svg width="100" height="100" viewBox="0 0 100 100" xmlns="http://www.w3.org/2000/svg">
  <defs>
    <linearGradient id="blueBadge" x1="0%" y1="0%" x2="100%" y2="100%">
      <stop offset="0%" stop-color="#3B82F6" />
      <stop offset="100%" stop-color="#1D4ED8" />
    </linearGradient>
  </defs>
  <rect x="6" y="6" width="88" height="88" rx="22" fill="url(#blueBadge)" />
  <rect x="18" y="18" width="64" height="64" rx="14" fill="rgba(255, 255, 255, 0.15)" stroke="rgba(255, 255, 255, 0.25)" stroke-width="1" />
  <!-- Book vector -->
  <g transform="translate(26, 26) scale(2)">
    <path d="M12 6.253v13m0-13C10.832 5.477 9.246 5 7.5 5S4.168 5.477 3 6.253v13C4.168 18.477 5.754 18 7.5 18s3.332.477 4.5 1.253m0-13C13.168 5.477 14.754 5 16.5 5c1.747 0 3.332.477 4.5 1.253v13C19.832 18.477 18.247 18 16.5 18c-1.746 0-3.332.477-4.5 1.253"
          fill="none" stroke="#FFFFFF" stroke-width="1.8" stroke-linecap="round" stroke-linejoin="round"/>
  </g>
</svg>
